<?xml version="1.0" encoding="UTF-8" standalone="no"?>
<!DOCTYPE svg PUBLIC "-//W3C//DTD SVG 1.1//EN"
 "http://www.w3.org/Graphics/SVG/1.1/DTD/svg11.dtd">
<!-- Generated by graphviz version 2.38.0 (20140413.2041)
 -->
<!-- Title: %3 Pages: 1 -->
<svg width="307pt" height="123pt"
 viewBox="0.00 0.00 307.00 123.00" xmlns="http://www.w3.org/2000/svg" xmlns:xlink="http://www.w3.org/1999/xlink">
<g id="graph0" class="graph" transform="scale(1 1) rotate(0) translate(4 119)">
<title>%3</title>
<polygon fill="white" stroke="none" points="-4,4 -4,-119 303,-119 303,4 -4,4"/>
<g id="clust1" class="cluster"><title>cluster18797</title>
<polygon fill="#cccccc" stroke="#cccccc" points="8,-8 8,-107 291,-107 291,-8 8,-8"/>
</g>
<!-- node18798 -->
<g id="node1" class="node"><title>node18798</title>
<ellipse fill="white" stroke="black" cx="43" cy="-81" rx="27" ry="18"/>
<text text-anchor="middle" x="43" y="-78.5572" font-family="gill sans semibold" font-size="12.00">orders</text>
</g>
<!-- node18800 -->
<g id="node3" class="node"><title>node18800</title>
<ellipse fill="white" stroke="black" cx="114" cy="-57" rx="27" ry="18"/>
<text text-anchor="middle" x="114" y="-54.5572" font-family="gill sans semibold" font-size="12.00">interleave</text>
</g>
<!-- node18798&#45;&gt;node18800 -->
<g id="edge1" class="edge"><title>node18798&#45;&gt;node18800</title>
<path fill="none" stroke="black" d="M67.3603,-72.8747C71.4067,-71.4672 75.6823,-69.9801 79.9289,-68.503"/>
<polygon fill="black" stroke="black" points="81.3687,-71.7079 89.6638,-65.1169 79.069,-65.0965 81.3687,-71.7079"/>
</g>
<!-- node18799 -->
<g id="node2" class="node"><title>node18799</title>
<ellipse fill="white" stroke="black" cx="43" cy="-34" rx="27" ry="18"/>
<text text-anchor="middle" x="43" y="-31.5572" font-family="gill sans semibold" font-size="12.00">executions</text>
</g>
<!-- node18799&#45;&gt;node18800 -->
<g id="edge2" class="edge"><title>node18799&#45;&gt;node18800</title>
<path fill="none" stroke="black" d="M67.3603,-41.7868C71.3188,-43.1063 75.4965,-44.4988 79.6519,-45.884"/>
<polygon fill="black" stroke="black" points="78.6001,-49.2226 89.1937,-49.0646 80.8137,-42.5818 78.6001,-49.2226"/>
</g>
<!-- node18801 -->
<g id="node4" class="node"><title>node18801</title>
<ellipse fill="white" stroke="black" cx="185" cy="-57" rx="27" ry="18"/>
<text text-anchor="middle" x="185" y="-54.5572" font-family="gill sans semibold" font-size="12.00">make trade</text>
</g>
<!-- node18800&#45;&gt;node18801 -->
<g id="edge3" class="edge"><title>node18800&#45;&gt;node18801</title>
<path fill="none" stroke="black" d="M141.086,-57C143.233,-57 145.426,-57 147.629,-57"/>
<polygon fill="black" stroke="black" points="147.877,-60.5001 157.877,-57 147.877,-53.5001 147.877,-60.5001"/>
</g>
<!-- node18802 -->
<g id="node5" class="node"><title>node18802</title>
<ellipse fill="white" stroke="black" cx="256" cy="-57" rx="27" ry="18"/>
<text text-anchor="middle" x="256" y="-54.5572" font-family="gill sans semibold" font-size="12.00">print</text>
</g>
<!-- node18801&#45;&gt;node18802 -->
<g id="edge4" class="edge"><title>node18801&#45;&gt;node18802</title>
<path fill="none" stroke="black" d="M212.086,-57C214.233,-57 216.426,-57 218.629,-57"/>
<polygon fill="black" stroke="black" points="218.877,-60.5001 228.877,-57 218.877,-53.5001 218.877,-60.5001"/>
</g>
</g>
</svg>
