<?xml version="1.0" encoding="UTF-8" standalone="no"?>
<!DOCTYPE svg PUBLIC "-//W3C//DTD SVG 1.1//EN"
 "http://www.w3.org/Graphics/SVG/1.1/DTD/svg11.dtd">
<!-- Generated by graphviz version 2.38.0 (20140413.2041)
 -->
<!-- Title: %3 Pages: 1 -->
<svg width="449pt" height="123pt"
 viewBox="0.00 0.00 449.00 123.00" xmlns="http://www.w3.org/2000/svg" xmlns:xlink="http://www.w3.org/1999/xlink">
<g id="graph0" class="graph" transform="scale(1 1) rotate(0) translate(4 119)">
<title>%3</title>
<polygon fill="white" stroke="none" points="-4,4 -4,-119 445,-119 445,4 -4,4"/>
<g id="clust1" class="cluster"><title>cluster18805</title>
<polygon fill="#cccccc" stroke="#cccccc" points="8,-8 8,-107 433,-107 433,-8 8,-8"/>
</g>
<!-- node18806 -->
<g id="node1" class="node"><title>node18806</title>
<ellipse fill="white" stroke="black" cx="43" cy="-81" rx="27" ry="18"/>
<text text-anchor="middle" x="43" y="-78.5572" font-family="gill sans semibold" font-size="12.00">orders</text>
</g>
<!-- node18808 -->
<g id="node3" class="node"><title>node18808</title>
<ellipse fill="white" stroke="black" cx="114" cy="-57" rx="27" ry="18"/>
<text text-anchor="middle" x="114" y="-54.5572" font-family="gill sans semibold" font-size="12.00">interleave</text>
</g>
<!-- node18806&#45;&gt;node18808 -->
<g id="edge1" class="edge"><title>node18806&#45;&gt;node18808</title>
<path fill="none" stroke="black" d="M67.3603,-72.8747C71.4067,-71.4672 75.6823,-69.9801 79.9289,-68.503"/>
<polygon fill="black" stroke="black" points="81.3687,-71.7079 89.6638,-65.1169 79.069,-65.0965 81.3687,-71.7079"/>
</g>
<!-- node18807 -->
<g id="node2" class="node"><title>node18807</title>
<ellipse fill="white" stroke="black" cx="43" cy="-34" rx="27" ry="18"/>
<text text-anchor="middle" x="43" y="-31.5572" font-family="gill sans semibold" font-size="12.00">executions</text>
</g>
<!-- node18807&#45;&gt;node18808 -->
<g id="edge2" class="edge"><title>node18807&#45;&gt;node18808</title>
<path fill="none" stroke="black" d="M67.3603,-41.7868C71.3188,-43.1063 75.4965,-44.4988 79.6519,-45.884"/>
<polygon fill="black" stroke="black" points="78.6001,-49.2226 89.1937,-49.0646 80.8137,-42.5818 78.6001,-49.2226"/>
</g>
<!-- node18809 -->
<g id="node4" class="node"><title>node18809</title>
<ellipse fill="white" stroke="black" cx="185" cy="-57" rx="27" ry="18"/>
<text text-anchor="middle" x="185" y="-54.5572" font-family="gill sans semibold" font-size="12.00">make trade</text>
</g>
<!-- node18808&#45;&gt;node18809 -->
<g id="edge3" class="edge"><title>node18808&#45;&gt;node18809</title>
<path fill="none" stroke="black" d="M141.086,-57C143.233,-57 145.426,-57 147.629,-57"/>
<polygon fill="black" stroke="black" points="147.877,-60.5001 157.877,-57 147.877,-53.5001 147.877,-60.5001"/>
</g>
<!-- node18810 -->
<g id="node5" class="node"><title>node18810</title>
<ellipse fill="white" stroke="black" cx="256" cy="-57" rx="27" ry="18"/>
<text text-anchor="middle" x="256" y="-54.5572" font-family="gill sans semibold" font-size="12.00">filter reds</text>
</g>
<!-- node18809&#45;&gt;node18810 -->
<g id="edge4" class="edge"><title>node18809&#45;&gt;node18810</title>
<path fill="none" stroke="black" d="M212.086,-57C214.233,-57 216.426,-57 218.629,-57"/>
<polygon fill="black" stroke="black" points="218.877,-60.5001 228.877,-57 218.877,-53.5001 218.877,-60.5001"/>
</g>
<!-- node18811 -->
<g id="node6" class="node"><title>node18811</title>
<ellipse fill="white" stroke="black" cx="327" cy="-57" rx="27" ry="18"/>
<text text-anchor="middle" x="327" y="-54.5572" font-family="gill sans semibold" font-size="12.00">count</text>
</g>
<!-- node18810&#45;&gt;node18811 -->
<g id="edge5" class="edge"><title>node18810&#45;&gt;node18811</title>
<path fill="none" stroke="black" d="M283.086,-57C285.233,-57 287.426,-57 289.629,-57"/>
<polygon fill="black" stroke="black" points="289.877,-60.5001 299.877,-57 289.877,-53.5001 289.877,-60.5001"/>
</g>
<!-- node18812 -->
<g id="node7" class="node"><title>node18812</title>
<ellipse fill="white" stroke="black" cx="398" cy="-57" rx="27" ry="18"/>
<text text-anchor="middle" x="398" y="-54.5572" font-family="gill sans semibold" font-size="12.00">print</text>
</g>
<!-- node18811&#45;&gt;node18812 -->
<g id="edge6" class="edge"><title>node18811&#45;&gt;node18812</title>
<path fill="none" stroke="black" d="M354.086,-57C356.233,-57 358.426,-57 360.629,-57"/>
<polygon fill="black" stroke="black" points="360.877,-60.5001 370.877,-57 360.877,-53.5001 360.877,-60.5001"/>
</g>
</g>
</svg>
